@startuml
Title "BundleLauncher类图"
interface BundleExtractor
abstract class BundleLauncher
abstract class SoBundleLauncher
abstract class AssetBundleLauncher
BundleLauncher <|-- ActivityLauncher
BundleLauncher <|-- SoBundleLauncher
SoBundleLauncher <|-- ApkBundleLauncher
BundleExtractor <|.. SoBundleLauncher
SoBundleLauncher <|-- AssetBundleLauncher
AssetBundleLauncher <|-- WebBundleLauncher
class ActivityLauncher {
+ public preloadBundle(Bundle bundle)
}
class SoBundleLauncher {
+ public preloadBundle(Bundle bundle)
}
class ApkBundleLauncher {
+ public loadBundle(Bundle bundle)
}
class AssetBundleLauncher {
+ public loadBundle(Bundle bundle)
}
@enduml
